<svg width="38" height="37" viewBox="0 0 38 37" fill="none" xmlns="http://www.w3.org/2000/svg">
<circle cx="19.1449" cy="18.165" r="18.165" fill="#1C6F65"/>
<path d="M19.6919 11.5258C19.7494 11.2289 19.5554 10.9398 19.2554 10.9021C17.718 10.7092 16.1531 10.9532 14.7424 11.6118C13.1659 12.3478 11.8627 13.5637 11.0194 15.0854C10.1761 16.6073 9.8359 18.3569 10.0476 20.0838C10.2592 21.8106 11.0119 23.4263 12.1978 24.6994C13.3836 25.9725 14.9419 26.8376 16.6495 27.171C18.3571 27.5045 20.1264 27.2891 21.7041 26.5557C23.2818 25.8223 24.5869 24.6085 25.4327 23.088C26.1895 21.7275 26.5438 20.1839 26.4602 18.6367C26.4439 18.3347 26.1692 18.1207 25.8691 18.1571C25.5688 18.1933 25.3571 18.4663 25.3703 18.7683C25.428 20.0857 25.1202 21.3972 24.4758 22.5557C23.7423 23.8742 22.6105 24.9267 21.2425 25.5628C19.8744 26.1987 18.3401 26.3855 16.8594 26.0963C15.3786 25.8072 14.0273 25.0569 12.999 23.953C11.9707 22.8491 11.318 21.448 11.1344 19.9505C10.9509 18.453 11.2459 16.9359 11.9772 15.6162C12.7085 14.2966 13.8386 13.2422 15.2056 12.604C16.4068 12.0433 17.7369 11.8291 19.0469 11.9799C19.3473 12.0145 19.6345 11.8227 19.6919 11.5258Z" fill="white"/>
<path d="M27.0285 10.8851C27.0961 10.9525 27.138 11.0456 27.1381 11.1485L27.1442 14.3863C27.1445 14.5922 26.9779 14.7595 26.772 14.7599C26.5661 14.7602 26.3988 14.5936 26.3984 14.3877L26.3932 11.5228L23.5283 11.5282C23.3224 11.5285 23.1552 11.3619 23.1548 11.156C23.1543 10.9501 23.321 10.7828 23.527 10.7824L26.7647 10.7764C26.8676 10.7762 26.9609 10.8178 27.0285 10.8851Z" fill="white"/>
<path d="M25.0045 12.9084C25.0721 12.9758 25.114 13.069 25.1142 13.1718L25.1203 16.4096C25.1206 16.6155 24.954 16.7828 24.748 16.7832C24.5422 16.7835 24.3749 16.6169 24.3745 16.411L24.3692 13.5461L21.5044 13.5515C21.2985 13.5518 21.1312 13.3852 21.1309 13.1794C21.1304 12.9734 21.2971 12.8061 21.5031 12.8058L24.7408 12.7997C24.8437 12.7995 24.937 12.8411 25.0045 12.9084Z" fill="white"/>
<path d="M17.1475 20.5859C17.0659 20.5046 17.0153 20.3921 17.0151 20.268L17.0078 16.3599C17.0073 16.1113 17.2085 15.9094 17.4571 15.9089C17.7056 15.9084 17.9075 16.1096 17.9079 16.3581L17.9143 19.8161L21.3723 19.8097C21.6209 19.8093 21.8227 20.0104 21.8231 20.2589C21.8237 20.5075 21.6226 20.7094 21.3739 20.7098L17.4658 20.7171C17.3416 20.7173 17.2291 20.6671 17.1475 20.5859Z" fill="white"/>
</svg>
