<svg width="54" height="72" viewBox="0 0 54 72" fill="none" xmlns="http://www.w3.org/2000/svg">
<path d="M5.6 68.126C4.592 68.126 3.73333 67.9207 3.024 67.51C2.31467 67.0993 1.76867 66.516 1.386 65.76C1.01267 64.9947 0.826 64.094 0.826 63.058C0.826 62.022 1.01267 61.126 1.386 60.37C1.76867 59.614 2.31467 59.0307 3.024 58.62C3.73333 58.2093 4.592 58.004 5.6 58.004C6.3 58.004 6.92533 58.1067 7.476 58.312C8.02667 58.5173 8.50733 58.816 8.918 59.208L8.414 60.37C7.966 59.9873 7.52733 59.712 7.098 59.544C6.678 59.376 6.188 59.292 5.628 59.292C4.564 59.292 3.752 59.6187 3.192 60.272C2.632 60.9253 2.352 61.854 2.352 63.058C2.352 64.262 2.632 65.1953 3.192 65.858C3.752 66.5113 4.564 66.838 5.628 66.838C6.188 66.838 6.678 66.754 7.098 66.586C7.52733 66.418 7.966 66.138 8.414 65.746L8.918 66.908C8.50733 67.3 8.02667 67.6033 7.476 67.818C6.92533 68.0233 6.3 68.126 5.6 68.126ZM10.34 68V57.696H11.754V62.442H11.558C11.7633 61.91 12.0947 61.5087 12.552 61.238C13.0093 60.958 13.5367 60.818 14.134 60.818C14.974 60.818 15.5993 61.0513 16.01 61.518C16.4207 61.9753 16.626 62.6707 16.626 63.604V68H15.212V63.688C15.212 63.0813 15.0907 62.6427 14.848 62.372C14.6147 62.092 14.2413 61.952 13.728 61.952C13.1307 61.952 12.65 62.1387 12.286 62.512C11.9313 62.876 11.754 63.3613 11.754 63.968V68H10.34ZM21.6208 68.126C20.4821 68.126 19.5861 67.804 18.9328 67.16C18.2795 66.516 17.9528 65.6247 17.9528 64.486C17.9528 63.7487 18.0928 63.1047 18.3728 62.554C18.6621 62.0033 19.0588 61.5787 19.5628 61.28C20.0761 60.972 20.6688 60.818 21.3408 60.818C22.0035 60.818 22.5588 60.958 23.0068 61.238C23.4548 61.518 23.7955 61.9147 24.0288 62.428C24.2621 62.932 24.3788 63.5293 24.3788 64.22V64.668H19.0588V63.856H23.4128L23.1748 64.038C23.1748 63.338 23.0161 62.7967 22.6988 62.414C22.3908 62.022 21.9428 61.826 21.3548 61.826C20.7015 61.826 20.1975 62.0547 19.8428 62.512C19.4881 62.96 19.3108 63.5807 19.3108 64.374V64.514C19.3108 65.3447 19.5115 65.97 19.9128 66.39C20.3235 66.81 20.9021 67.02 21.6488 67.02C22.0595 67.02 22.4421 66.964 22.7968 66.852C23.1608 66.7307 23.5061 66.5347 23.8328 66.264L24.2948 67.23C23.9681 67.5193 23.5715 67.7433 23.1048 67.902C22.6381 68.0513 22.1435 68.126 21.6208 68.126ZM28.8154 68.126C28.1061 68.126 27.4854 67.9813 26.9534 67.692C26.4307 67.3933 26.0247 66.9687 25.7354 66.418C25.4554 65.858 25.3154 65.1953 25.3154 64.43C25.3154 63.674 25.4601 63.0253 25.7494 62.484C26.0387 61.9427 26.4447 61.532 26.9674 61.252C27.4901 60.9627 28.1061 60.818 28.8154 60.818C29.2727 60.818 29.7161 60.8973 30.1454 61.056C30.5747 61.2053 30.9294 61.42 31.2094 61.7L30.7474 62.694C30.4861 62.442 30.1921 62.2553 29.8654 62.134C29.5387 62.0033 29.2214 61.938 28.9134 61.938C28.2414 61.938 27.7141 62.1527 27.3314 62.582C26.9487 63.0113 26.7574 63.632 26.7574 64.444C26.7574 65.2653 26.9487 65.8953 27.3314 66.334C27.7141 66.7727 28.2414 66.992 28.9134 66.992C29.2121 66.992 29.5247 66.936 29.8514 66.824C30.1781 66.7027 30.4767 66.5113 30.7474 66.25L31.2094 67.244C30.9201 67.524 30.5561 67.7433 30.1174 67.902C29.6881 68.0513 29.2541 68.126 28.8154 68.126ZM32.4277 68V57.696H33.8417V64.024H33.8697L36.9497 60.944H38.6997L34.9757 64.654L34.9897 64.024L39.0077 68H37.2157L33.8697 64.766H33.8417V68H32.4277ZM43.1773 68V58.13H44.6333V68H43.1773ZM46.5448 68V62.638C46.5448 62.3673 46.5308 62.092 46.5028 61.812C46.4841 61.5227 46.4608 61.2333 46.4328 60.944H47.8048L47.9308 62.428H47.7628C47.9774 61.9053 48.3088 61.5087 48.7568 61.238C49.2048 60.958 49.7228 60.818 50.3108 60.818C51.1414 60.818 51.7668 61.0467 52.1868 61.504C52.6161 61.9613 52.8308 62.6707 52.8308 63.632V68H51.4168V63.716C51.4168 63.0907 51.2908 62.6427 51.0388 62.372C50.7961 62.092 50.4228 61.952 49.9188 61.952C49.3214 61.952 48.8454 62.1387 48.4908 62.512C48.1361 62.876 47.9588 63.3707 47.9588 63.996V68H46.5448Z" fill="#1C6F65"/>
<path d="M15.9141 15.2402C16.1474 15.2402 16.3818 15.1609 16.574 14.9988C17.0061 14.6339 17.0609 13.9878 16.696 13.5559C15.6332 12.297 15.048 10.6949 15.048 9.04465C15.048 5.18651 18.1869 2.04785 22.0448 2.04785C25.9028 2.04785 29.0416 5.18651 29.0416 9.04465C29.0416 10.1211 28.8041 11.1529 28.3356 12.112C28.0873 12.6202 28.2979 13.2332 28.8061 13.4813C29.3142 13.7303 29.9273 13.5189 30.1755 13.0108C30.782 11.7695 31.0893 10.4351 31.0893 9.04465C31.0893 4.0573 27.032 0 22.0447 0C17.0573 0 13 4.0573 13 9.04465C13 11.1778 13.7568 13.2491 15.131 14.8767C15.3337 15.1167 15.6229 15.2402 15.9141 15.2402Z" fill="#1C6F65"/>
<path d="M41.3151 24.1927C40.6554 20.2916 37.8464 19.7613 36.6365 19.7176C36.294 19.7052 35.9819 19.525 35.7982 19.2357C34.8823 17.7927 33.6403 17.413 32.5877 17.413C32.1058 17.4128 31.6638 17.4923 31.3104 17.5858C31.2066 17.6131 31.101 17.6266 30.9965 17.6266C30.6249 17.6266 30.2667 17.457 30.0429 17.1469C29.1419 15.8986 27.9659 15.561 26.9579 15.561C26.6882 15.561 26.4305 15.5853 26.1935 15.6225C26.1302 15.6325 26.0674 15.6373 26.0058 15.6373C25.3607 15.6373 24.8165 15.1134 24.8156 14.445L24.8071 7.22851C24.8047 5.36378 23.4062 4.43201 22.0077 4.43201C20.6065 4.43201 19.2052 5.36702 19.2076 7.23534C19.2114 10.368 19.2228 19.7772 19.226 22.6123C19.2267 23.0915 18.9402 23.5244 18.4982 23.7092C12.945 26.0305 19.8025 36.4433 21.0307 38.2278C21.1505 38.4018 21.2215 38.6037 21.2374 38.8145L21.5375 42.8523C21.5843 43.4752 22.1034 43.9998 22.7282 43.9998C22.7287 43.9998 22.7292 43.9998 22.7297 43.9998L36.1471 43.9402C36.7459 43.9394 37.2514 43.474 37.3293 42.8803L37.8758 38.7073C37.899 38.5314 37.9628 38.357 38.0591 38.2078C41.6448 32.6653 41.9266 27.8087 41.3151 24.1927Z" fill="#1C6F65"/>
</svg>
