<svg width="37" height="37" viewBox="0 0 37 37" fill="none" xmlns="http://www.w3.org/2000/svg">
<circle cx="18.165" cy="18.165" r="18.165" fill="#1C6F65"/>
<path d="M19.3223 10.9151C19.3798 10.6182 19.1858 10.3291 18.8858 10.2914C17.3483 10.0985 15.7835 10.3425 14.3728 11.0011C12.7963 11.7371 11.4931 12.953 10.6498 14.4747C9.80646 15.9966 9.46627 17.7461 9.67793 19.4731C9.8896 21.1999 10.6422 22.8156 11.8281 24.0887C13.014 25.3617 14.5723 26.2269 16.2799 26.5603C17.9874 26.8938 19.7567 26.6784 21.3344 25.945C22.9121 25.2115 24.2173 23.9978 25.063 22.4773C25.8199 21.1168 26.1741 19.5732 26.0906 18.026C26.0743 17.724 25.7996 17.51 25.4994 17.5463C25.1992 17.5826 24.9875 17.8555 25.0007 18.1576C25.0584 19.4749 24.7506 20.7865 24.1061 21.945C23.3727 23.2635 22.2409 24.316 20.8728 24.952C19.5047 25.588 17.9705 25.7748 16.4897 25.4856C15.009 25.1965 13.6577 24.4462 12.6294 23.3423C11.601 22.2383 10.9484 20.8373 10.7648 19.3398C10.5813 17.8423 10.8763 16.3252 11.6075 15.0055C12.3388 13.6859 13.4689 12.6315 14.836 11.9933C16.0372 11.4325 17.3673 11.2184 18.6773 11.3692C18.9776 11.4038 19.2648 11.212 19.3223 10.9151Z" fill="white"/>
<path d="M21.2724 15.6694C21.2049 15.602 21.163 15.5089 21.1628 15.406L21.1567 12.1683C21.1564 11.9623 21.323 11.795 21.529 11.7947C21.7348 11.7943 21.9021 11.9609 21.9025 12.1668L21.9078 15.0317L24.7726 15.0264C24.9785 15.026 25.1458 15.1926 25.1461 15.3985C25.1466 15.6045 24.9799 15.7718 24.7739 15.7721L21.5362 15.7782C21.4333 15.7783 21.34 15.7367 21.2724 15.6694Z" fill="white"/>
<path d="M23.2959 13.6458C23.2283 13.5785 23.1864 13.4853 23.1862 13.3825L23.1802 10.1447C23.1798 9.93874 23.3464 9.77146 23.5524 9.77112C23.7583 9.77073 23.9255 9.93736 23.9259 10.1433L23.9312 13.0082L26.7961 13.0028C27.002 13.0025 27.1692 13.1691 27.1696 13.3749C27.1701 13.5809 27.0034 13.7482 26.7974 13.7485L23.5597 13.7546C23.4567 13.7548 23.3635 13.7132 23.2959 13.6458Z" fill="white"/>
<path d="M16.7779 19.9754C16.6963 19.8941 16.6457 19.7816 16.6455 19.6575L16.6382 15.7494C16.6377 15.5008 16.8389 15.2989 17.0875 15.2985C17.336 15.298 17.5378 15.4991 17.5383 15.7477L17.5447 19.2057L21.0027 19.1992C21.2512 19.1988 21.453 19.3999 21.4535 19.6484C21.4541 19.897 21.2529 20.0989 21.0042 20.0993L17.0962 20.1067C16.972 20.1068 16.8595 20.0566 16.7779 19.9754Z" fill="white"/>
</svg>
