<svg width="66" height="72" viewBox="0 0 66 72" fill="none" xmlns="http://www.w3.org/2000/svg">
<path d="M5.6 68.126C4.592 68.126 3.73333 67.9207 3.024 67.51C2.31467 67.0993 1.76867 66.516 1.386 65.76C1.01267 64.9947 0.826 64.094 0.826 63.058C0.826 62.022 1.01267 61.126 1.386 60.37C1.76867 59.614 2.31467 59.0307 3.024 58.62C3.73333 58.2093 4.592 58.004 5.6 58.004C6.3 58.004 6.92533 58.1067 7.476 58.312C8.02667 58.5173 8.50733 58.816 8.918 59.208L8.414 60.37C7.966 59.9873 7.52733 59.712 7.098 59.544C6.678 59.376 6.188 59.292 5.628 59.292C4.564 59.292 3.752 59.6187 3.192 60.272C2.632 60.9253 2.352 61.854 2.352 63.058C2.352 64.262 2.632 65.1953 3.192 65.858C3.752 66.5113 4.564 66.838 5.628 66.838C6.188 66.838 6.678 66.754 7.098 66.586C7.52733 66.418 7.966 66.138 8.414 65.746L8.918 66.908C8.50733 67.3 8.02667 67.6033 7.476 67.818C6.92533 68.0233 6.3 68.126 5.6 68.126ZM10.34 68V57.696H11.754V62.442H11.558C11.7633 61.91 12.0947 61.5087 12.552 61.238C13.0093 60.958 13.5367 60.818 14.134 60.818C14.974 60.818 15.5993 61.0513 16.01 61.518C16.4207 61.9753 16.626 62.6707 16.626 63.604V68H15.212V63.688C15.212 63.0813 15.0907 62.6427 14.848 62.372C14.6147 62.092 14.2413 61.952 13.728 61.952C13.1307 61.952 12.65 62.1387 12.286 62.512C11.9313 62.876 11.754 63.3613 11.754 63.968V68H10.34ZM21.6208 68.126C20.4821 68.126 19.5861 67.804 18.9328 67.16C18.2795 66.516 17.9528 65.6247 17.9528 64.486C17.9528 63.7487 18.0928 63.1047 18.3728 62.554C18.6621 62.0033 19.0588 61.5787 19.5628 61.28C20.0761 60.972 20.6688 60.818 21.3408 60.818C22.0035 60.818 22.5588 60.958 23.0068 61.238C23.4548 61.518 23.7955 61.9147 24.0288 62.428C24.2621 62.932 24.3788 63.5293 24.3788 64.22V64.668H19.0588V63.856H23.4128L23.1748 64.038C23.1748 63.338 23.0161 62.7967 22.6988 62.414C22.3908 62.022 21.9428 61.826 21.3548 61.826C20.7015 61.826 20.1975 62.0547 19.8428 62.512C19.4881 62.96 19.3108 63.5807 19.3108 64.374V64.514C19.3108 65.3447 19.5115 65.97 19.9128 66.39C20.3235 66.81 20.9021 67.02 21.6488 67.02C22.0595 67.02 22.4421 66.964 22.7968 66.852C23.1608 66.7307 23.5061 66.5347 23.8328 66.264L24.2948 67.23C23.9681 67.5193 23.5715 67.7433 23.1048 67.902C22.6381 68.0513 22.1435 68.126 21.6208 68.126ZM28.8154 68.126C28.1061 68.126 27.4854 67.9813 26.9534 67.692C26.4307 67.3933 26.0247 66.9687 25.7354 66.418C25.4554 65.858 25.3154 65.1953 25.3154 64.43C25.3154 63.674 25.4601 63.0253 25.7494 62.484C26.0387 61.9427 26.4447 61.532 26.9674 61.252C27.4901 60.9627 28.1061 60.818 28.8154 60.818C29.2727 60.818 29.7161 60.8973 30.1454 61.056C30.5747 61.2053 30.9294 61.42 31.2094 61.7L30.7474 62.694C30.4861 62.442 30.1921 62.2553 29.8654 62.134C29.5387 62.0033 29.2214 61.938 28.9134 61.938C28.2414 61.938 27.7141 62.1527 27.3314 62.582C26.9487 63.0113 26.7574 63.632 26.7574 64.444C26.7574 65.2653 26.9487 65.8953 27.3314 66.334C27.7141 66.7727 28.2414 66.992 28.9134 66.992C29.2121 66.992 29.5247 66.936 29.8514 66.824C30.1781 66.7027 30.4767 66.5113 30.7474 66.25L31.2094 67.244C30.9201 67.524 30.5561 67.7433 30.1174 67.902C29.6881 68.0513 29.2541 68.126 28.8154 68.126ZM32.4277 68V57.696H33.8417V64.024H33.8697L36.9497 60.944H38.6997L34.9757 64.654L34.9897 64.024L39.0077 68H37.2157L33.8697 64.766H33.8417V68H32.4277ZM42.8413 63.058C42.8413 62.022 43.0233 61.126 43.3873 60.37C43.7513 59.614 44.2786 59.0307 44.9693 58.62C45.6693 58.2093 46.5 58.004 47.4613 58.004C48.4133 58.004 49.2346 58.2093 49.9253 58.62C50.616 59.0307 51.148 59.614 51.5213 60.37C51.904 61.126 52.0953 62.0173 52.0953 63.044C52.0953 64.08 51.904 64.9807 51.5213 65.746C51.148 66.502 50.6113 67.09 49.9113 67.51C49.2206 67.9207 48.404 68.126 47.4613 68.126C46.5 68.126 45.674 67.9207 44.9833 67.51C44.2926 67.09 43.7606 66.502 43.3873 65.746C43.0233 64.9807 42.8413 64.0847 42.8413 63.058ZM44.3673 63.058C44.3673 64.2527 44.6286 65.186 45.1513 65.858C45.674 66.53 46.444 66.866 47.4613 66.866C48.4506 66.866 49.216 66.5347 49.7573 65.872C50.2986 65.2 50.5693 64.262 50.5693 63.058C50.5693 61.854 50.2986 60.9207 49.7573 60.258C49.2253 59.5953 48.46 59.264 47.4613 59.264C46.444 59.264 45.674 59.5953 45.1513 60.258C44.6286 60.9207 44.3673 61.854 44.3673 63.058ZM56.1875 68.126C55.3381 68.126 54.6988 67.8973 54.2695 67.44C53.8495 66.9733 53.6395 66.2593 53.6395 65.298V60.944H55.0535V65.27C55.0535 65.858 55.1748 66.292 55.4175 66.572C55.6601 66.852 56.0288 66.992 56.5235 66.992C57.0835 66.992 57.5361 66.8053 57.8815 66.432C58.2268 66.0587 58.3995 65.564 58.3995 64.948V60.944H59.8135V68H58.4415V66.488H58.6235C58.4275 67.0107 58.1148 67.4167 57.6855 67.706C57.2561 67.986 56.7568 68.126 56.1875 68.126ZM64.3486 68.126C63.5833 68.126 63.0046 67.9207 62.6126 67.51C62.2206 67.09 62.0246 66.4647 62.0246 65.634V62.036H60.6526V60.944H62.0246V59.082L63.4386 58.704V60.944H65.3986V62.036H63.4386V65.508C63.4386 66.0307 63.5319 66.404 63.7186 66.628C63.9053 66.852 64.1759 66.964 64.5306 66.964C64.7079 66.964 64.8619 66.95 64.9926 66.922C65.1326 66.8847 65.2586 66.8427 65.3706 66.796V67.944C65.2306 68 65.0673 68.042 64.8806 68.07C64.6939 68.1073 64.5166 68.126 64.3486 68.126Z" fill="#FF6C6C"/>
<path d="M21.9141 15.2402C22.1474 15.2402 22.3818 15.1609 22.574 14.9988C23.0061 14.6339 23.0609 13.9878 22.696 13.5559C21.6332 12.297 21.048 10.6949 21.048 9.04465C21.048 5.18651 24.1869 2.04785 28.0448 2.04785C31.9028 2.04785 35.0416 5.18651 35.0416 9.04465C35.0416 10.1211 34.8041 11.1529 34.3356 12.112C34.0873 12.6202 34.2979 13.2332 34.8061 13.4813C35.3142 13.7303 35.9273 13.5189 36.1755 13.0108C36.782 11.7695 37.0893 10.4351 37.0893 9.04465C37.0893 4.0573 33.032 0 28.0447 0C23.0573 0 19 4.0573 19 9.04465C19 11.1778 19.7568 13.2491 21.131 14.8767C21.3337 15.1167 21.6229 15.2402 21.9141 15.2402Z" fill="#FF6C6C"/>
<path d="M47.3151 24.1927C46.6554 20.2916 43.8464 19.7613 42.6365 19.7176C42.294 19.7052 41.9819 19.525 41.7982 19.2357C40.8823 17.7927 39.6403 17.413 38.5877 17.413C38.1058 17.4128 37.6638 17.4923 37.3104 17.5858C37.2066 17.6131 37.101 17.6266 36.9965 17.6266C36.6249 17.6266 36.2667 17.457 36.0429 17.1469C35.1419 15.8986 33.9659 15.561 32.9579 15.561C32.6882 15.561 32.4305 15.5853 32.1935 15.6225C32.1302 15.6325 32.0674 15.6373 32.0058 15.6373C31.3607 15.6373 30.8165 15.1134 30.8156 14.445L30.8071 7.22851C30.8047 5.36378 29.4062 4.43201 28.0077 4.43201C26.6065 4.43201 25.2052 5.36702 25.2076 7.23534C25.2114 10.368 25.2228 19.7772 25.226 22.6123C25.2267 23.0915 24.9402 23.5244 24.4982 23.7092C18.945 26.0305 25.8025 36.4433 27.0307 38.2278C27.1505 38.4018 27.2215 38.6037 27.2374 38.8145L27.5375 42.8523C27.5843 43.4752 28.1034 43.9998 28.7282 43.9998C28.7287 43.9998 28.7292 43.9998 28.7297 43.9998L42.1471 43.9402C42.7459 43.9394 43.2514 43.474 43.3293 42.8803L43.8758 38.7073C43.899 38.5314 43.9628 38.357 44.0591 38.2078C47.6448 32.6653 47.9266 27.8087 47.3151 24.1927Z" fill="#FF6C6C"/>
</svg>
