<svg width="37" height="37" viewBox="0 0 37 37" fill="none" xmlns="http://www.w3.org/2000/svg">
<circle cx="18.5112" cy="18.165" r="18.165" fill="#1C6F65"/>
<g clip-path="url(#clip0_4_1172)">
<path d="M19.3125 11.2713C19.37 10.9744 19.176 10.6853 18.876 10.6476C17.3386 10.4547 15.7738 10.6987 14.363 11.3573C12.7865 12.0933 11.4833 13.3092 10.64 14.8309C9.79669 16.3528 9.45651 18.1023 9.66817 19.8293C9.87983 21.5561 10.6325 23.1718 11.8184 24.4449C13.0042 25.7179 14.5625 26.5831 16.2701 26.9165C17.9777 27.25 19.747 27.0346 21.3247 26.3012C22.9024 25.5677 24.2075 24.354 25.0533 22.8335C25.8101 21.473 26.1644 19.9294 26.0808 18.3822C26.0645 18.0802 25.7898 17.8662 25.4897 17.9026C25.1894 17.9388 24.9777 18.2118 24.9909 18.5138C25.0486 19.8312 24.7408 21.1427 24.0964 22.3012C23.3629 23.6197 22.2311 24.6722 20.8631 25.3082C19.495 25.9442 17.9607 26.131 16.48 25.8418C14.9992 25.5527 13.6479 24.8024 12.6196 23.6985C11.5913 22.5945 10.9386 21.1935 10.755 19.696C10.5715 18.1985 10.8665 16.6814 11.5978 15.3617C12.3291 14.0421 13.4592 12.9877 14.8262 12.3495C16.0275 11.7887 17.3576 11.5746 18.6675 11.7254C18.9679 11.76 19.2551 11.5682 19.3125 11.2713Z" fill="white"/>
<path d="M16.7681 20.3315C16.6865 20.2502 16.6359 20.1377 16.6357 20.0136L16.6284 16.1055C16.6279 15.8569 16.8291 15.655 17.0777 15.6545C17.3262 15.6541 17.5281 15.8552 17.5285 16.1038L17.5349 19.5617L20.9929 19.5553C21.2415 19.5549 21.4433 19.756 21.4438 20.0045C21.4443 20.2531 21.2432 20.455 20.9945 20.4554L17.0864 20.4627C16.9622 20.4629 16.8497 20.4127 16.7681 20.3315Z" fill="white"/>
<path d="M28.6435 8.15042C28.6168 8.15657 28.5667 8.17501 28.5349 8.18884C28.5032 8.2042 27.3765 9.22756 26.0325 10.4614L23.587 12.7079L22.4302 11.6446C21.6161 10.8994 21.2501 10.5721 21.1966 10.5475C21.0946 10.4999 20.9324 10.4999 20.8355 10.5444C20.7469 10.5874 20.6566 10.6812 20.6199 10.7703C20.5831 10.8563 20.5931 10.9777 20.6416 11.0653C20.6917 11.1544 23.3446 13.5838 23.4231 13.6145C23.5034 13.6437 23.6706 13.6437 23.7508 13.6145C23.8294 13.5838 29.0531 8.78964 29.1083 8.69744C29.1584 8.61139 29.1584 8.44544 29.1083 8.35939C29.018 8.20267 28.8124 8.11047 28.6435 8.15042Z" fill="white"/>
<path d="M28.6435 11.2034C28.6168 11.2095 28.5667 11.228 28.5349 11.2418C28.5032 11.2572 27.3765 12.2805 26.0325 13.5144L23.587 15.7609L22.4302 14.6976C21.6161 13.9524 21.2501 13.625 21.1966 13.6005C21.0946 13.5529 20.9324 13.5529 20.8355 13.5974C20.7469 13.6404 20.6566 13.7341 20.6199 13.8233C20.5831 13.9093 20.5931 14.0307 20.6416 14.1183C20.6917 14.2074 23.3446 16.6367 23.4231 16.6675C23.5034 16.6967 23.6706 16.6967 23.7508 16.6675C23.8294 16.6367 29.0531 11.8426 29.1083 11.7504C29.1584 11.6644 29.1584 11.4984 29.1083 11.4124C29.018 11.2556 28.8124 11.1634 28.6435 11.2034Z" fill="white"/>
</g>
<defs>
<clipPath id="clip0_4_1172">
<rect width="20.76" height="20.76" fill="white" transform="translate(8.99609 6.91992)"/>
</clipPath>
</defs>
</svg>
